<svg width="21" height="31" viewBox="0 0 21 31" fill="none" xmlns="http://www.w3.org/2000/svg">
<path d="M15.6934 8.67634V5.36979H16.7434C17.2735 5.36979 17.7026 4.94069 17.7026 4.41063V1.12932C17.7026 0.599262 17.2735 0.170166 16.7434 0.170166H4.25424C3.72419 0.170166 3.29509 0.599262 3.29509 1.12932V4.41063C3.29509 4.94069 3.72419 5.36979 4.25424 5.36979H5.30427V8.67634L0.700329 16.0113C0.341908 16.5868 0.362101 17.3188 0.755859 17.8741L9.13583 29.6616C9.30242 29.8938 9.51444 30.0705 9.75171 30.1917V17.2078C9.29737 16.9453 8.98943 16.4606 8.98943 15.9003C8.98943 15.0623 9.66589 14.3858 10.5039 14.3858C11.3419 14.3858 12.0183 15.0623 12.0183 15.9003C12.0183 16.4606 11.7104 16.9503 11.2561 17.2078V30.1866C11.4933 30.0705 11.7054 29.8938 11.8719 29.6566L20.2519 17.8691C20.6457 17.3188 20.6659 16.5818 20.3074 16.0063L15.6934 8.67634Z" fill="#1C8B6A"/>
</svg>
